<svg width="61" height="60" fill="none" xmlns="http://www.w3.org/2000/svg"><path d="M46.7 4.288c2.656 0 4.927.943 6.813 2.83 1.886 1.885 2.83 4.156 2.83 6.813v32.143c0 2.656-.944 4.927-2.83 6.813-1.886 1.886-4.157 2.83-6.814 2.83h-6.294V35.794h6.663l1.004-7.768h-7.667V23.07c0-1.25.262-2.187.787-2.812.524-.625 1.545-.938 3.063-.938l4.085-.033v-6.93c-1.406-.202-3.393-.302-5.96-.302-3.036 0-5.463.893-7.282 2.678-1.82 1.786-2.729 4.308-2.729 7.567v5.726h-6.696v7.768h6.696v19.921H14.557c-2.657 0-4.928-.943-6.814-2.829-1.886-1.886-2.83-4.157-2.83-6.813V13.93c0-2.656.944-4.928 2.83-6.814 1.886-1.886 4.157-2.83 6.814-2.83h32.142Z" fill="#000"/></svg>