<svg width="59" height="60" fill="none" xmlns="http://www.w3.org/2000/svg"><g clip-path="url(#a)"><path d="M53.249 10.444c-.45-2.396-1.887-3.577-3.184-4.038-1.402-.503-4.241-1.024-7.807-1.44-2.87-.338-6.244-.308-8.284-.248-.244-1.661-1.421-3.18-2.734-3.705C27.738-.386 22.323-.048 20.935.338c-1.102.308-2.325.934-3.008 1.901-.457.645-.75 1.474-.753 2.63 0 .652.018 2.193.034 3.562l.033 2.61a2.235 2.235 0 0 1-2.239 2.22h-5.68c-1.212 0-2.138.202-2.843.52a3.947 3.947 0 0 0-1.59 1.257C4.13 16.047 4 17.296 4 18.567c0 0 .011 1.038.263 3.049.21 1.556 1.912 12.427 3.528 15.734.627 1.287 1.043 1.823 2.277 2.39 2.745 1.166 9.01 2.46 11.947 2.83 2.933.372 4.774 1.155 5.869-1.124.011-.004.225-.567.525-1.392a22.425 22.425 0 0 0 1.084-7.237c0-.188.277-.195.277 0 0 1.297-.247 5.887 3.247 7.117 1.38.484 4.245.919 7.152 1.257 2.629.3 4.537 1.327 4.537 8.017 0 4.073-.862 4.631-5.37 4.631-3.656 0-5.047.094-5.047-2.786 0-2.325 2.321-2.081 4.042-2.081.769 0 .21-.566.21-2.003 0-1.428.9-2.254.049-2.276-5.948-.161-9.446-.008-9.446 7.369-.004 6.701 2.58 7.942 11.021 7.942 6.619 0 8.951-.213 11.685-8.625.54-1.661 1.849-6.727 2.64-15.228.502-5.382-.473-21.612-1.241-25.707ZM41.71 28.384a12.096 12.096 0 0 0-2.336.139c.206-1.65.892-3.679 3.33-3.596 2.7.093 3.075 2.621 3.086 4.335a11.158 11.158 0 0 0-4.08-.878ZM9.059 11.626h5.681a.586.586 0 0 0 .589-.582s-.068-4.83-.068-6.168V4.86c0-1.103.233-2.063.642-2.87l.194-.36a.12.12 0 0 0-.063.035L5 12.514a.135.135 0 0 0-.041.064l.585-.285c.956-.435 2.119-.667 3.514-.667Z" fill="#000"/></g><defs><clipPath id="a"><path fill="#fff" d="M0 0h58.628v60.004H0z"/></clipPath></defs></svg>