<svg width="61" height="60" fill="none" xmlns="http://www.w3.org/2000/svg"><path d="M24.2 40.716a9.6 9.6 0 0 1-.42 2.746 6.592 6.592 0 0 1-1.439 2.545c-.68.759-1.49 1.138-2.427 1.138-.938 0-1.747-.38-2.428-1.138a6.59 6.59 0 0 1-1.44-2.545 9.6 9.6 0 0 1-.418-2.746 9.6 9.6 0 0 1 .418-2.745 6.59 6.59 0 0 1 1.44-2.545c.681-.759 1.49-1.138 2.428-1.138.937 0 1.746.38 2.427 1.138a6.592 6.592 0 0 1 1.44 2.545 9.6 9.6 0 0 1 .418 2.745Zm21.428 0a9.6 9.6 0 0 1-.419 2.746 6.593 6.593 0 0 1-1.44 2.545c-.68.759-1.49 1.138-2.427 1.138s-1.746-.38-2.427-1.138a6.592 6.592 0 0 1-1.44-2.545 9.6 9.6 0 0 1-.419-2.746 9.6 9.6 0 0 1 .419-2.745 6.592 6.592 0 0 1 1.44-2.545c.68-.759 1.49-1.138 2.427-1.138.938 0 1.747.38 2.428 1.138a6.593 6.593 0 0 1 1.44 2.545 9.6 9.6 0 0 1 .418 2.745Zm5.357 0c0-2.678-.77-4.955-2.31-6.83s-3.627-2.812-6.261-2.812c-.916 0-3.092.234-6.53.703-1.584.245-3.337.368-5.256.368-1.92 0-3.672-.123-5.257-.368-3.393-.469-5.569-.703-6.529-.703-2.634 0-4.72.937-6.261 2.812-1.54 1.875-2.31 4.152-2.31 6.83 0 1.965.357 3.678 1.071 5.14.714 1.462 1.618 2.611 2.712 3.449 1.094.837 2.456 1.506 4.085 2.008 1.63.503 3.192.832 4.688.988 1.495.157 3.158.235 4.988.235h5.625c1.83 0 3.494-.078 4.99-.235 1.495-.156 3.057-.485 4.687-.988 1.63-.502 2.99-1.171 4.085-2.008 1.093-.837 1.997-1.987 2.712-3.45.714-1.461 1.071-3.174 1.071-5.139Zm7.5-5.892c0 4.62-.68 8.314-2.042 11.082a13.493 13.493 0 0 1-3.533 4.453c-1.506 1.25-3.08 2.21-4.72 2.88-1.641.67-3.539 1.2-5.693 1.59-2.154.39-4.068.636-5.742.737-1.674.1-3.538.15-5.591.15-1.742 0-3.326-.033-4.755-.1a75.69 75.69 0 0 1-4.938-.419c-1.864-.212-3.566-.546-5.107-1.004a35.278 35.278 0 0 1-4.587-1.724 14.809 14.809 0 0 1-4.05-2.712 13.913 13.913 0 0 1-2.88-3.85C3.463 43.16 2.77 39.466 2.77 34.823c0-5.29 1.518-9.71 4.553-13.26a18.082 18.082 0 0 1-.904-5.691c0-2.59.57-5.023 1.708-7.3 2.41 0 4.531.441 6.361 1.323 1.83.882 3.94 2.26 6.329 4.135 3.28-.781 6.73-1.172 10.346-1.172 3.303 0 6.428.357 9.375 1.072 2.343-1.83 4.43-3.181 6.26-4.052 1.831-.87 3.94-1.305 6.329-1.305 1.138 2.276 1.708 4.71 1.708 7.299a17.69 17.69 0 0 1-.904 5.625c3.035 3.571 4.553 8.013 4.553 13.326Z" fill="#000"/></svg>