<svg width="41" height="52" fill="none" xmlns="http://www.w3.org/2000/svg"><g clip-path="url(#a)"><path d="M.632 18.666c0-2.183.455-4.351 1.37-6.498.914-2.147 2.221-4.144 3.926-5.98 1.705-1.834 3.943-3.326 6.717-4.47C15.42.574 18.495.002 21.868.002c5.477 0 9.972 1.7 13.486 5.095 3.513 3.395 5.27 7.398 5.27 12.01 0 5.927-1.488 10.824-4.47 14.687-2.98 3.863-6.83 5.797-11.547 5.797a9.113 9.113 0 0 1-4.366-1.092c-1.36-.728-2.315-1.612-2.868-2.652l-2.067 8.215a15.99 15.99 0 0 1-.671 2.001 22.41 22.41 0 0 1-.905 1.95 41.509 41.509 0 0 1-.981 1.768 29.183 29.183 0 0 1-.982 1.56c-.326.483-.61.893-.853 1.221a16.85 16.85 0 0 1-.671.858l-.31.416a.38.38 0 0 1-.414.156.374.374 0 0 1-.31-.312c0-.037-.026-.276-.077-.728a123.17 123.17 0 0 1-.155-1.43 54.562 54.562 0 0 1-.155-1.95 27.114 27.114 0 0 1-.052-2.313c.016-.743.067-1.57.155-2.47.088-.899.217-1.73.388-2.495.377-1.627 1.653-7.055 3.823-16.273-.274-.556-.501-1.221-.671-2.001-.171-.78-.259-1.414-.259-1.898l-.052-.78c0-2.22.559-4.065 1.68-5.537 1.12-1.47 2.47-2.21 4.056-2.21 1.276 0 2.263.427 2.97 1.275.709.847 1.06 1.913 1.06 3.197 0 .795-.145 1.778-.44 2.937a70.752 70.752 0 0 1-1.162 4.003c-.48 1.508-.827 2.73-1.033 3.666-.346 1.56-.041 2.911.904 4.055.946 1.144 2.212 1.716 3.798 1.716 2.723 0 4.97-1.55 6.743-4.653 1.772-3.104 2.66-6.853 2.66-11.256 0-3.364-1.084-6.109-3.255-8.24-2.17-2.132-5.203-3.198-9.093-3.198-4.34 0-7.865 1.404-10.567 4.211C7.773 12.116 6.42 15.48 6.42 19.394c0 2.324.656 4.279 1.964 5.875.45.52.583 1.076.413 1.664-.067.171-.17.572-.31 1.195-.14.624-.243 1.025-.31 1.196-.067.38-.243.635-.517.754-.274.12-.584.114-.93-.026-2.03-.832-3.555-2.261-4.573-4.289C1.14 23.735.632 21.37.632 18.666Z" fill="#000"/></g><defs><clipPath id="a"><path fill="#fff" transform="translate(.628 .002)" d="M0 0h40v52H0z"/></clipPath></defs></svg>