<svg width="61" height="60" fill="none" xmlns="http://www.w3.org/2000/svg"><path d="M55.628 14.502a21.227 21.227 0 0 1-5.9 1.6 10.325 10.325 0 0 0 4.525-5.675 20.527 20.527 0 0 1-6.525 2.5 10.25 10.25 0 0 0-17.5 9.35A29.1 29.1 0 0 1 9.103 11.552a10.4 10.4 0 0 0-1.375 5.175 10.225 10.225 0 0 0 4.55 8.525 10.126 10.126 0 0 1-4.65-1.275v.125a10.25 10.25 0 0 0 8.25 10 9.826 9.826 0 0 1-2.75.425 12.264 12.264 0 0 1-1.925-.175 10.276 10.276 0 0 0 9.575 7.1 20.55 20.55 0 0 1-12.65 4.4 19.84 19.84 0 0 1-2.5-.15 28.925 28.925 0 0 0 15.725 4.625 28.977 28.977 0 0 0 29.275-29.2v-1.325a21.075 21.075 0 0 0 5-5.3Z" fill="#000"/></svg>