<svg width="61" height="60" fill="none" xmlns="http://www.w3.org/2000/svg"><path d="M58.128 24.277a21.251 21.251 0 0 0-2.275-10.325 7.3 7.3 0 0 0-4.3-2.5 195.894 195.894 0 0 0-20.925-.775c-6.959-.12-13.918.13-20.85.75a7.174 7.174 0 0 0-3.65 1.85c-2.25 2.075-2.5 5.625-2.75 8.625a120.728 120.728 0 0 0 0 16.2c.072 1.689.324 3.365.75 5a7.85 7.85 0 0 0 1.775 3.4 7.15 7.15 0 0 0 3.725 1.95c5.39.666 10.82.941 16.25.825 8.75.125 16.425 0 25.5-.7a7.2 7.2 0 0 0 3.825-1.95c.7-.7 1.223-1.557 1.525-2.5a26.453 26.453 0 0 0 1.3-8.5c.1-1.4.1-9.85.1-11.35Zm-33.15 12.85V21.652l14.8 7.775c-4.15 2.3-9.625 4.9-14.8 7.7Z" fill="#000"/></svg>